<?xml version="1.0" encoding="UTF-8" standalone="no"?>
<!-- Created with Inkscape (http://www.inkscape.org/) -->

<svg
   version="1.1"
   id="svg1"
   width="48"
   height="48"
   viewBox="0 0 48.000006 48"
   sodipodi:docname="TORICA_LOGO_Fabicon.svg"
   inkscape:version="1.4 (86a8ad7, 2024-10-11)"
   inkscape:export-filename="TORICA_LOGO_Fabicon.png"
   inkscape:export-xdpi="96"
   inkscape:export-ydpi="96"
   xmlns:inkscape="http://www.inkscape.org/namespaces/inkscape"
   xmlns:sodipodi="http://sodipodi.sourceforge.net/DTD/sodipodi-0.dtd"
   xmlns="http://www.w3.org/2000/svg"
   xmlns:svg="http://www.w3.org/2000/svg">
  <sodipodi:namedview
     id="namedview1"
     pagecolor="#ffffff"
     bordercolor="#000000"
     borderopacity="0.25"
     inkscape:showpageshadow="2"
     inkscape:pageopacity="0.0"
     inkscape:pagecheckerboard="0"
     inkscape:deskcolor="#d1d1d1"
     inkscape:zoom="16.8125"
     inkscape:cx="24"
     inkscape:cy="46.483271"
     inkscape:window-width="1920"
     inkscape:window-height="1009"
     inkscape:window-x="-8"
     inkscape:window-y="-8"
     inkscape:window-maximized="1"
     inkscape:current-layer="svg1" />
  <defs
     id="defs1" />
  <ellipse
     style="display:inline;fill:#ffffff;fill-opacity:1;stroke:none;stroke-width:0.330404;stroke-dasharray:none"
     id="path2"
     cx="24"
     cy="24.000004"
     rx="24.000002"
     ry="24.000004" />
  <g
     id="layer2"
     style="display:inline"
     transform="matrix(2.8125058,0,0,2.8125058,-553.96994,-663.6762)">
    <path
       id="path3"
       style="fill:#000000;fill-opacity:1;stroke:#000000;stroke-width:0.0220063;stroke-opacity:1"
       d="m 206.64365,240.99931 c 0,0 2.20063,0.59416 4.90741,1.67248 0.57217,0.22006 1.82653,0.81423 1.43042,1.34238 -0.37412,0.46214 -1.38641,0.63818 -2.22265,0.74822 0,0 0,0 0,0 0.17606,-0.15404 0.30809,-0.28608 0.44013,-0.41812 0.13204,-0.13204 0.26408,-0.26408 0.3521,-0.44013 0.088,-0.17605 -0.022,-0.22006 -0.17605,-0.13203 l -0.13204,0.066 c -0.066,0.044 -0.13203,0.088 -0.22006,0.11003 l -0.22006,-0.74821 -0.11004,-0.26408 -0.48414,-0.022 -0.66018,1.54044 0.46213,-0.022 0.088,-0.3521 h 0.57216 c 0,0.15404 -0.11003,0.19806 -0.22006,0.28608 -0.24208,0.17606 -0.48414,0.3301 -0.74822,0.50615 -1.3644,0.11003 -2.7728,0.13203 -5.10547,0.088 -1.4084,-0.022 -3.34496,-0.088 -4.8634,-0.17606 0.022,-0.26408 0.044,-0.52815 0.044,-0.52815 0,0 -0.44013,0.19806 -0.61618,0.50615 -0.50615,-0.022 -1.34239,-0.066 -1.34239,-0.066 0,0 0.57217,0.044 1.32038,0.088 0,0 0,0 0,0 -0.17605,0.30809 -0.50615,1.43042 -0.44013,2.13462 0.044,0.39612 0.30809,0.79223 0.74822,0.74822 0.50615,-0.044 0.17605,-0.59418 0.3521,-0.85825 0.088,-0.13204 0.48414,-0.022 0.61618,-0.022 0.044,0.13203 0.30809,0.11003 0.44013,0.11003 0.44013,0.044 0.90225,-0.022 1.34239,0.066 0.30808,0.044 0.59416,0.13204 0.90226,0.13204 0.19805,0 0.44012,-0.066 0.61618,0 0.22006,0.11002 0.3961,0.28608 0.61617,0.39611 0.22006,0.11003 0.46213,0.13204 0.6822,0.24207 0.11002,0.066 0.15404,0.26408 0.28608,0.28608 0.13204,0 0.30808,-0.088 0.46213,-0.088 0.41812,0.022 0.81423,0.044 1.23235,0.044 0.15405,0 0.37412,0.044 0.52816,-0.044 0.13204,-0.066 0,-0.22006 -0.066,-0.26408 -0.17605,-0.17605 -0.39612,-0.41812 -0.66019,-0.44012 0.022,-0.15405 0.15405,-0.17606 0.28608,-0.19806 0.26407,-0.066 0.52815,-0.13204 0.79223,-0.22006 0.79223,-0.28609 1.49643,-0.88026 2.13462,-1.40841 0.19805,-0.15405 0.41812,-0.37411 0.61618,-0.55016 1.16633,-0.11003 2.37667,-0.35211 2.72878,-0.90226 0.59417,-0.85825 -0.90226,-1.40841 -2.33267,-1.82653 -3.03688,-0.90226 -4.37927,-1.12232 -4.37927,-1.12232 z m -9.13263,0.55016 v 0.55015 l 1.29837,0.088 -0.13204,1.45242 v 0.46213 l 0.26408,0.022 0.72621,-0.022 0.11003,-1.78251 1.21035,0.088 0.022,-0.55016 z m 5.03945,0.50614 c -0.066,0 -0.15405,0 -0.22007,0.022 -0.3521,0.044 -0.68219,0.13204 -0.94627,0.3741 -0.33009,0.3081 -0.3521,0.92428 -0.066,1.27638 0.44013,0.50614 1.10032,0.59417 1.73851,0.52815 0.74821,-0.088 1.47442,-0.88025 0.92426,-1.62847 -0.3301,-0.41812 -0.90226,-0.57217 -1.4084,-0.55016 z m 2.02459,0.26408 -0.11004,1.98057 0.63818,-0.022 0.022,-0.74822 c 0.48414,0 0.83624,0.26408 0.83624,0.77023 l 0.59417,0.044 c 0,-0.26408 -0.22006,-0.77022 -0.48414,-0.88026 v -0.044 c 0.11004,-0.044 0.26408,-0.066 0.3521,-0.15404 0.24208,-0.26408 0,-0.63818 -0.26407,-0.77022 -0.44013,-0.22006 -1.10032,-0.13204 -1.58446,-0.17605 z m -1.93656,0.17604 c 0.26407,0 0.57216,0.088 0.7262,0.3081 0.28608,0.41812 -0.088,0.99028 -0.55016,1.0563 -0.24206,0.022 -0.61617,-0.066 -0.77022,-0.28608 -0.26407,-0.41812 0.022,-1.0123 0.48414,-1.07832 0.044,0 0.066,0 0.11004,0 z m 4.35725,0.044 -0.088,1.76052 0.50614,0.022 0.13204,-1.73851 z m 1.62847,0.17606 c -0.41812,0 -0.77023,0.17605 -0.85825,0.63818 -0.066,0.28608 0.022,0.61618 0.24207,0.83624 0.44013,0.41812 1.23235,0.28608 1.43041,-0.30809 l -0.44012,-0.044 c -0.066,0.28609 -0.44013,0.3301 -0.63819,0.15405 -0.33009,-0.30809 -0.13203,-1.05631 0.37411,-0.96828 0.17605,0.022 0.19806,0.17605 0.3301,0.26408 0.088,0.066 0.26407,0.022 0.3741,0.022 0,-0.3301 -0.33009,-0.50615 -0.63818,-0.55016 -0.066,0 -0.11003,-0.022 -0.17605,-0.022 z m -3.41099,0.022 c 0.11004,0 0.22007,0.022 0.3301,0.022 0.066,0 0.15404,0.022 0.22006,0.022 0.15405,0.044 0.26408,0.22006 0.13204,0.3521 -0.088,0.088 -0.59417,0.088 -0.6822,0 -0.066,-0.088 0,-0.30809 0,-0.39612 z m 5.28153,0.46213 0.088,0.59417 h -0.3521 z m -10.7611,1.62847 c 1.36439,0.088 3.1469,0.17605 4.57732,0.19806 2.26665,0.044 4.26923,0.022 5.2155,-0.044 -0.22007,0.15404 -0.44013,0.33009 -0.63819,0.46213 -0.44012,0.30809 -0.88025,0.59417 -1.34238,0.85825 -0.30809,0.17605 -0.61618,0.41812 -0.94628,0.52815 -0.15404,0.044 -0.39611,0.13204 -0.55016,0.15405 -0.11002,0 -0.24206,-0.088 -0.3521,-0.11004 -0.28608,-0.044 -0.61618,-0.066 -0.90225,-0.088 -0.17606,-0.022 -0.37411,-0.066 -0.55016,-0.022 -0.088,0.022 -0.11004,0.13204 -0.22006,0.13204 -0.24208,-0.022 -0.48414,-0.13204 -0.70421,-0.17606 -0.66019,-0.15404 -1.27637,-0.33009 -1.87054,-0.68219 -0.28608,-0.17605 -0.59417,-0.3521 -0.81423,-0.59417 -0.11004,-0.11003 -0.15405,-0.30809 -0.26408,-0.37411 0.044,0.61618 0.52815,1.01229 1.01229,1.32038 0.19806,0.11003 0.48414,0.22007 0.61618,0.37411 -0.22006,-0.066 -0.81423,0.13204 -0.94627,-0.088 -0.13204,0 -0.24207,0.022 -0.3301,-0.088 0.19806,0.022 0.44013,0.022 0.61618,-0.088 v -0.022 l -1.07831,-0.022 c -0.088,0.15405 -0.48414,0.15405 -0.52815,-0.044 -0.11004,-0.50614 -0.022,-1.34238 0,-1.60646 z" />
  </g>
</svg>
