<?xml version="1.0" encoding="UTF-8" standalone="no"?>
<!-- Created with Inkscape (http://www.inkscape.org/) -->

<svg
   version="1.1"
   id="svg1"
   width="350"
   height="150"
   viewBox="0 0 350 150"
   sodipodi:docname="TORICA_LOGO_Title.svg"
   inkscape:version="1.3.2 (091e20e, 2023-11-25, custom)"
   xmlns:inkscape="http://www.inkscape.org/namespaces/inkscape"
   xmlns:sodipodi="http://sodipodi.sourceforge.net/DTD/sodipodi-0.dtd"
   xmlns="http://www.w3.org/2000/svg"
   xmlns:svg="http://www.w3.org/2000/svg">
  <sodipodi:namedview
     id="namedview1"
     pagecolor="#ffffff"
     bordercolor="#000000"
     borderopacity="0.25"
     inkscape:showpageshadow="2"
     inkscape:pageopacity="0.0"
     inkscape:pagecheckerboard="0"
     inkscape:deskcolor="#d1d1d1"
     inkscape:zoom="3.48"
     inkscape:cx="175"
     inkscape:cy="74.856322"
     inkscape:window-width="1920"
     inkscape:window-height="991"
     inkscape:window-x="-9"
     inkscape:window-y="-9"
     inkscape:window-maximized="1"
     inkscape:current-layer="layer2" />
  <defs
     id="defs1" />
  <g
     id="layer2"
     style="display:inline"
     transform="translate(-233.50001,-251.50643)">
    <path
       id="path3"
       style="fill:#000000;fill-opacity:1;stroke:#000000;stroke-width:0.475027;stroke-opacity:1"
       d="M 434,252 C 434,252 482,264 541,287 553,292 581,305 572,316 564,326 542,330 524,332 524,332 524,332 524,332 527,329 530,326 533,323 536,320 539,317 541,314 543,310 540,309 537,311 L 534,312 C 533,313 531,314 529,315 L 525,299 522,293 512,293 497,325 507,325 509,317 H 522 C 522,321 519,322 517,323 512,327 506,330 500,334 471,337 440,337 389,336 358,336 316,334 282,332 283,327 283,321 283,321 283,321 274,325 270,332 259,331 240,330 240,330 240,330 253,331 269,332 269,332 269,332 269,332 266,339 258,363 260,378 261,386 266,395 276,394 287,393 280,381 284,375 286,373 294,375 297,375 298,378 304,377 307,377 317,378 327,377 336,379 343,380 349,382 356,382 360,382 366,380 369,382 374,384 378,388 383,390 388,392 393,393 398,395 400,397 401,401 404,401 407,401 411,399 414,399 423,400 432,400 441,400 445,400 449,401 453,399 456,398 453,395 451,394 447,390 443,385 437,384 437,381 440,381 443,380 449,379 455,377 460,375 478,369 493,357 507,345 512,342 516,338 521,334 546,331 573,326 580,315 593,296 561,285 529,276 463,256 434,252 434,252 Z M 234,263 V 275 L 262,277 259,308 V 318 L 265,318 281,318 283,280 310,282 310,270 Z M 344,274 C 343,274 341,274 339,275 331,276 324,278 318,283 311,289 311,302 317,310 327,321 341,323 355,321 371,319 387,302 375,286 368,278 356,274 344,275 Z M 388,280 386,322 400,322 400,306 C 411,306 419,311 419,322 L 432,323 C 432,317 427,307 421,304 V 303 C 423,302 427,302 429,300 434,294 429,286 423,284 413,279 399,281 388,280 Z M 346,284 C 352,284 358,285 362,290 368,299 360,311 350,313 344,313 336,311 333,307 327,298 333,285 343,284 344,284 345,284 346,284 Z M 441,285 439,322 450,323 453,285 Z M 477,288 C 468,288 460,292 458,302 457,308 459,315 463,320 473,329 490,326 495,313 L 485,312 C 484,318 475,319 471,315 464,309 468,293 479,295 483,295 484,299 486,300 488,302 492,301 495,301 495,294 487,290 481,289 479,289 478,289 477,289 Z M 402,289 C 405,289 407,289 409,289 411,289 413,290 414,290 418,291 420,294 417,297 415,299 404,299 402,297 401,295 402,291 402,289 Z M 518,299 520,311 H 512 Z M 282,333 C 312,335 351,337 382,338 432,338 476,338 497,337 492,340 487,344 483,346 473,353 463,359 453,365 447,368 440,374 433,376 429,377 424,379 421,379 418,379 415,377 413,377 407,376 399,375 393,375 389,375 385,374 381,375 379,375 379,377 376,377 371,377 366,375 361,374 346,370 333,367 320,359 314,355 307,352 302,346 300,344 299,340 296,338 297,352 308,360 318,367 323,369 329,371 332,375 327,373 314,377 311,373 308,373 306,373 304,371 308,371 314,371 318,369 V 368 L 294,368 C 292,371 283,371 282,367 280,356 282,338 282,333 Z" />
  </g>
</svg>
